<svg xmlns="http://www.w3.org/2000/svg" xmlns:xlink="http://www.w3.org/1999/xlink" width="500" zoomAndPan="magnify" viewBox="0 0 375 374.999991" height="500" preserveAspectRatio="xMidYMid meet" version="1.2"><defs/><g id="22e44cbf1a"><g style="fill:#1f48ff;fill-opacity:1;"><g transform="translate(38.504874, 198.059023)"><path style="stroke:none" d="M 65.046875 0 C 64.296875 5.757812 61.039062 10.265625 55.28125 13.515625 C 50.09375 16.390625 43.617188 17.828125 35.859375 17.828125 C 25.472656 17.828125 17.648438 14.859375 12.390625 8.921875 C 8.503906 4.472656 6.5625 -0.972656 6.5625 -7.421875 C 6.5625 -12.359375 7.722656 -16.675781 10.046875 -20.375 L 21.3125 -22.71875 C 18.800781 -18.457031 17.546875 -13.984375 17.546875 -9.296875 C 17.546875 -4.035156 19.113281 0 22.25 2.8125 C 25.375 5.695312 29.910156 7.140625 35.859375 7.140625 C 45.117188 7.140625 50.75 4.757812 52.75 0 L 43.734375 0 L 49.65625 -11.359375 L 65.328125 -11.359375 L 65.328125 0 Z M 29.5625 38.578125 C 27.6875 38.578125 26.1875 38 25.0625 36.84375 C 23.9375 35.6875 23.375 34.164062 23.375 32.28125 C 23.375 30.46875 23.9375 29 25.0625 27.875 C 26.1875 26.75 27.6875 26.1875 29.5625 26.1875 C 31.4375 26.1875 32.921875 26.734375 34.015625 27.828125 C 35.117188 28.921875 35.671875 30.40625 35.671875 32.28125 C 35.671875 36.476562 33.632812 38.578125 29.5625 38.578125 Z M 44.015625 38.578125 C 42.140625 38.578125 40.640625 38.015625 39.515625 36.890625 C 38.390625 35.765625 37.828125 34.226562 37.828125 32.28125 C 37.828125 28.21875 39.890625 26.1875 44.015625 26.1875 C 45.890625 26.1875 47.375 26.734375 48.46875 27.828125 C 49.570312 28.921875 50.125 30.40625 50.125 32.28125 C 50.125 36.476562 48.085938 38.578125 44.015625 38.578125 Z M 44.015625 38.578125 "/></g></g><g style="fill:#1f48ff;fill-opacity:1;"><g transform="translate(101.852794, 198.059023)"><path style="stroke:none" d="M 15.578125 -51.15625 C 13.703125 -51.15625 12.203125 -51.71875 11.078125 -52.84375 C 9.953125 -53.96875 9.390625 -55.5 9.390625 -57.4375 C 9.390625 -59.25 9.953125 -60.71875 11.078125 -61.84375 C 12.203125 -62.976562 13.703125 -63.546875 15.578125 -63.546875 C 17.453125 -63.546875 18.9375 -62.992188 20.03125 -61.890625 C 21.132812 -60.796875 21.6875 -59.3125 21.6875 -57.4375 C 21.6875 -53.25 19.648438 -51.15625 15.578125 -51.15625 Z M 30.59375 -11.359375 L 39.046875 -11.359375 L 39.046875 0 L 29.46875 0 C 24.90625 0 21.117188 -1.21875 18.109375 -3.65625 C 15.109375 -1.21875 11.328125 0 6.765625 0 L -2.8125 0 L -2.8125 -11.359375 L 5.625 -11.359375 C 8.007812 -11.359375 9.703125 -11.875 10.703125 -12.90625 C 11.703125 -13.9375 12.203125 -15.671875 12.203125 -18.109375 L 12.203125 -35.484375 L 24.03125 -41.671875 L 24.03125 -18.109375 C 24.03125 -15.671875 24.53125 -13.9375 25.53125 -12.90625 C 26.53125 -11.875 28.21875 -11.359375 30.59375 -11.359375 Z M 30.59375 -11.359375 "/></g></g><g style="fill:#1f48ff;fill-opacity:1;"><g transform="translate(138.078421, 198.059023)"><path style="stroke:none" d="M 29.46875 -11.359375 L 37.921875 -11.359375 L 37.921875 0 L 28.34375 0 C 23.46875 0 19.492188 -1.375 16.421875 -4.125 C 12.984375 -1.375 8.757812 0 3.75 0 L -2.8125 0 L -2.8125 -11.359375 L 3.09375 -11.359375 C 5.976562 -11.359375 8.03125 -11.984375 9.25 -13.234375 C 10.46875 -14.484375 11.078125 -16.609375 11.078125 -19.609375 L 11.078125 -54.25 L 22.8125 -60.546875 L 22.8125 -41.578125 L 22.90625 -41.671875 L 22.90625 -18.109375 C 22.90625 -15.671875 23.40625 -13.9375 24.40625 -12.90625 C 25.40625 -11.875 27.09375 -11.359375 29.46875 -11.359375 Z M 29.46875 -11.359375 "/></g></g><g style="fill:#1f48ff;fill-opacity:1;"><g transform="translate(191.479047, 175.534501)"><path style="stroke:none" d="M 19.234375 -66.359375 L 25.90625 -70.015625 L 25.90625 -60.359375 C 25.90625 -58.222656 25.140625 -56.46875 23.609375 -55.09375 C 22.078125 -53.71875 20.117188 -53.03125 17.734375 -53.03125 C 15.796875 -53.03125 14.171875 -53.46875 12.859375 -54.34375 C 11.484375 -53.46875 9.890625 -53.03125 8.078125 -53.03125 C 5.691406 -53.03125 3.75 -53.71875 2.25 -55.09375 C 0.75 -56.46875 0 -58.222656 0 -60.359375 L 0 -64.390625 L 6.5625 -68.046875 L 6.5625 -60.734375 C 6.5625 -59.847656 7.097656 -59.40625 8.171875 -59.40625 C 9.171875 -59.40625 9.671875 -59.816406 9.671875 -60.640625 L 9.671875 -65.421875 L 16.234375 -69.078125 L 16.234375 -60.640625 C 16.234375 -59.816406 16.734375 -59.40625 17.734375 -59.40625 C 18.734375 -59.40625 19.234375 -59.847656 19.234375 -60.734375 Z M 19.234375 -66.359375 "/></g></g><g style="fill:#1f48ff;fill-opacity:1;"><g transform="translate(173.17786, 198.059023)"><path style="stroke:none" d="M 32.9375 -51.15625 C 31.0625 -51.15625 29.5625 -51.71875 28.4375 -52.84375 C 27.3125 -53.96875 26.75 -55.5 26.75 -57.4375 C 26.75 -59.25 27.3125 -60.71875 28.4375 -61.84375 C 29.5625 -62.976562 31.0625 -63.546875 32.9375 -63.546875 C 34.820312 -63.546875 36.3125 -62.992188 37.40625 -61.890625 C 38.5 -60.796875 39.046875 -59.3125 39.046875 -57.4375 C 39.046875 -53.25 37.007812 -51.15625 32.9375 -51.15625 Z M 43.265625 -11.359375 L 69.078125 -11.359375 L 69.265625 0 L 42.140625 0 C 38.953125 0 35.945312 -0.78125 33.125 -2.34375 C 30.1875 -0.78125 27.1875 0 24.125 0 L -2.8125 0 L -2.8125 -11.359375 L 22.71875 -11.359375 C 19.894531 -13.296875 17.546875 -15.140625 15.671875 -16.890625 C 14.609375 -17.828125 12.984375 -19.582031 10.796875 -22.15625 C 10.109375 -22.96875 9.546875 -23.625 9.109375 -24.125 L 9.109375 -29.46875 C 11.859375 -33.664062 15.40625 -37.015625 19.75 -39.515625 C 24.101562 -42.015625 28.5625 -43.265625 33.125 -43.265625 C 37.632812 -43.265625 42.078125 -42 46.453125 -39.46875 C 50.835938 -36.9375 54.46875 -33.539062 57.34375 -29.28125 L 57.34375 -24.125 C 53.15625 -19.050781 48.460938 -14.796875 43.265625 -11.359375 Z M 33.03125 -15.859375 C 37.726562 -19.554688 41.203125 -23.28125 43.453125 -27.03125 C 39.703125 -30.53125 36.164062 -32.28125 32.84375 -32.28125 C 29.65625 -32.28125 26.34375 -30.53125 22.90625 -27.03125 C 25.34375 -22.71875 28.71875 -18.992188 33.03125 -15.859375 Z M 33.03125 -15.859375 "/></g></g><g style="fill:#1f48ff;fill-opacity:1;"><g transform="translate(276.975978, 163.802957)"><path style="stroke:none" d="M 0 -53.03125 L 4.21875 -62.140625 L 28.90625 -66.546875 L 24.6875 -57.53125 Z M 0 -53.03125 "/></g></g><g style="fill:#1f48ff;fill-opacity:1;"><g transform="translate(239.622792, 198.059023)"><path style="stroke:none" d="M 50.5 -63.734375 C 46.738281 -63.734375 44.859375 -65.640625 44.859375 -69.453125 C 44.859375 -73.148438 46.738281 -75 50.5 -75 C 54.1875 -75 56.03125 -73.148438 56.03125 -69.453125 C 56.03125 -65.640625 54.1875 -63.734375 50.5 -63.734375 Z M 43.359375 -49.9375 C 41.484375 -49.9375 39.984375 -50.5 38.859375 -51.625 C 37.734375 -52.75 37.171875 -54.28125 37.171875 -56.21875 C 37.171875 -58.03125 37.734375 -59.5 38.859375 -60.625 C 39.984375 -61.757812 41.484375 -62.328125 43.359375 -62.328125 C 45.234375 -62.328125 46.71875 -61.773438 47.8125 -60.671875 C 48.914062 -59.578125 49.46875 -58.09375 49.46875 -56.21875 C 49.46875 -52.03125 47.429688 -49.9375 43.359375 -49.9375 Z M 57.8125 -49.9375 C 55.9375 -49.9375 54.4375 -50.5 53.3125 -51.625 C 52.1875 -52.75 51.625 -54.28125 51.625 -56.21875 C 51.625 -58.03125 52.1875 -59.5 53.3125 -60.625 C 54.4375 -61.757812 55.9375 -62.328125 57.8125 -62.328125 C 59.695312 -62.328125 61.1875 -61.773438 62.28125 -60.671875 C 63.375 -59.578125 63.921875 -58.09375 63.921875 -56.21875 C 63.921875 -52.03125 61.882812 -49.9375 57.8125 -49.9375 Z M -2.8125 0 L -2.8125 -11.359375 L 7.140625 -11.359375 C 9.515625 -11.359375 11.21875 -11.875 12.25 -12.90625 C 13.28125 -13.9375 13.796875 -15.671875 13.796875 -18.109375 L 13.796875 -30.5 L 25.625 -36.703125 L 25.625 -18.109375 C 25.625 -15.671875 26.125 -13.9375 27.125 -12.90625 C 28.125 -11.875 29.8125 -11.359375 32.1875 -11.359375 L 38.578125 -11.359375 C 40.953125 -11.359375 42.640625 -11.875 43.640625 -12.90625 C 44.640625 -13.9375 45.140625 -15.671875 45.140625 -18.109375 L 45.140625 -32.9375 L 56.96875 -39.234375 L 56.96875 -18.109375 C 56.96875 -15.671875 57.484375 -13.9375 58.515625 -12.90625 C 59.546875 -11.875 61.253906 -11.359375 63.640625 -11.359375 L 70.015625 -11.359375 C 72.390625 -11.359375 74.078125 -11.875 75.078125 -12.90625 C 76.085938 -13.9375 76.59375 -15.671875 76.59375 -18.109375 L 76.59375 -35.484375 L 88.421875 -41.671875 L 88.421875 -17.546875 C 88.421875 -11.984375 86.726562 -7.601562 83.34375 -4.40625 C 80.40625 -1.59375 76.523438 -0.125 71.703125 0 L 62.421875 0 C 57.785156 0 54 -1.375 51.0625 -4.125 C 48.375 -1.4375 44.804688 -0.0625 40.359375 0 L 31.0625 0 C 26.4375 0 22.648438 -1.375 19.703125 -4.125 C 16.765625 -1.375 12.984375 0 8.359375 0 Z M -2.8125 0 "/></g></g></g></svg>